#N canvas 962 1098 476 831 10;
#X obj 34 364 phasor~;
#X obj 91 668 hip~ 10;
#X obj 198 254 /~ 2;
#X obj 91 646 *~;
#X obj 86 365 phasor~;
#X obj 33 391 *~ 0.15;
#X obj 84 392 *~ 0.15;
#X floatatom 44 326 5 0 0 0 - - -;
#X obj 49 305 hsl 128 15 1 1.1 1 0 empty empty empty -2 -8 0 10 -262144
-1 -1 0 0;
#X obj 198 282 phasor~;
#X obj 250 283 phasor~;
#X obj 197 309 *~ 0.15;
#X obj 248 310 *~ 0.15;
#X floatatom 321 260 5 0 0 0 - - -;
#X obj 229 236 hsl 128 15 1 1.1 1 0 empty empty empty -2 -8 0 10 -262144
-1 -1 0 0;
#X obj 31 256 mtof~;
#X floatatom 41 194 5 0 0 0 - - -;
#X obj 38 231 - 12;
#X obj 196 444 /~ 2;
#X obj 197 472 phasor~;
#X obj 249 473 phasor~;
#X obj 196 499 *~ 0.15;
#X obj 247 500 *~ 0.15;
#X floatatom 315 448 5 0 0 0 - - -;
#X obj 255 428 hsl 128 15 1 1.1 1 0 empty empty empty -2 -8 0 10 -262144
-1 -1 0 0;
#X obj 123 256 mtof~;
#X obj 126 233 + 7;
#X obj 40 138 inlet;
#X text 36 104 |notenum amp=1 atk=0 dec=3000(;
#X obj 46 283 r \$0-det0;
#X obj 227 213 r \$0-det1;
#X obj 250 403 r \$0-det2;
#X obj 309 132 hsl 128 15 1 1.1 0 0 \$0-det0 empty empty -2 -8 0 10
-262144 -1 -1 0 0;
#X obj 309 149 hsl 128 15 1 1.1 0 0 \$0-det1 empty empty -2 -8 0 10
-262144 -1 -1 0 0;
#X obj 309 166 hsl 128 15 1 1.1 0 0 \$0-det2 empty empty -2 -8 0 10
-262144 -1 -1 0 0;
#X obj 364 687 line~;
#X msg 361 661 0 \$1;
#X obj 367 535 t b b;
#X obj 355 625 f 5000;
#X floatatom 407 564 5 0 0 0 - - -;
#X obj 446 565 hsl 128 15 50 5000 1 0 empty empty empty -2 -8 0 10
-262144 -1 -1 0 0;
#X obj 355 581 del 10;
#X obj 349 710 expr~ pow($v1 \, 6.2);
#X obj 91 727 outlet~;
#X obj 38 169 unpack f f f;
#X obj 415 526 r \$0-dec;
#X obj 116 197 s \$0-amp;
#X obj 446 607 r \$0-amp;
#X obj 134 170 s \$0-atk;
#X obj 455 636 r \$0-atk;
#X obj 416 662 pack 1 60;
#X obj 417 638 f;
#X obj 303 554 r \$0-atk;
#X obj 122 132 inlet~;
#X obj 166 132 inlet~;
#X obj 214 132 inlet~;
#X obj 85 344 *~;
#X obj 300 472 *~;
#X obj 307 284 *~;
#X connect 0 0 5 0;
#X connect 1 0 43 0;
#X connect 2 0 9 0;
#X connect 2 0 58 0;
#X connect 3 0 1 0;
#X connect 4 0 6 0;
#X connect 5 0 3 0;
#X connect 6 0 3 0;
#X connect 7 0 56 1;
#X connect 8 0 7 0;
#X connect 9 0 11 0;
#X connect 10 0 12 0;
#X connect 11 0 3 0;
#X connect 12 0 3 0;
#X connect 13 0 58 1;
#X connect 14 0 13 0;
#X connect 15 0 0 0;
#X connect 15 0 2 0;
#X connect 15 0 56 0;
#X connect 16 0 17 0;
#X connect 16 0 26 0;
#X connect 17 0 15 0;
#X connect 18 0 19 0;
#X connect 18 0 57 0;
#X connect 19 0 21 0;
#X connect 20 0 22 0;
#X connect 21 0 3 0;
#X connect 22 0 3 0;
#X connect 23 0 57 1;
#X connect 24 0 23 0;
#X connect 25 0 18 0;
#X connect 26 0 25 0;
#X connect 27 0 37 0;
#X connect 27 0 44 0;
#X connect 29 0 8 0;
#X connect 30 0 14 0;
#X connect 31 0 24 0;
#X connect 35 0 42 0;
#X connect 36 0 35 0;
#X connect 37 0 41 0;
#X connect 37 1 51 0;
#X connect 38 0 36 0;
#X connect 39 0 38 1;
#X connect 40 0 39 0;
#X connect 41 0 38 0;
#X connect 42 0 3 1;
#X connect 44 0 16 0;
#X connect 44 1 46 0;
#X connect 44 2 48 0;
#X connect 45 0 39 0;
#X connect 47 0 51 1;
#X connect 49 0 50 1;
#X connect 50 0 35 0;
#X connect 51 0 50 0;
#X connect 52 0 41 1;
#X connect 53 0 56 1;
#X connect 54 0 58 1;
#X connect 55 0 57 1;
#X connect 56 0 4 0;
#X connect 57 0 20 0;
#X connect 58 0 10 0;
#X coords 0 -1 1 1 145 100 1 300 100;
