#N canvas 962 1098 476 831 10;
#X obj 122 325 line~;
#X obj 122 343 expr~ pow($v1 \, $v2);
#X obj 121 117 inlet;
#X obj 234 115 inlet~;
#X obj 121 368 outlet~;
#X text 22 84 2: Exponent value (env slope) \, signal;
#X obj 144 219 f;
#X msg 171 219 \$2;
#X obj 120 140 t b l l;
#X msg 142 238 0 \$1;
#X obj 144 197 del 100;
#X text 22 54 1: Trigger message - [amp dec atk=0(;
#X obj 61 205 expr $f1 + 4;
#X text 268 288 offset attack by 4 to avoid clicking;
#X obj 51 175 unpack 0 0 0;
#X obj 52 249 pack f f f;
#X msg 93 296 \$1 \$3;
#X connect 0 0 1 0;
#X connect 1 0 4 0;
#X connect 2 0 8 0;
#X connect 3 0 1 1;
#X connect 6 0 9 0;
#X connect 7 0 6 1;
#X connect 8 0 10 0;
#X connect 8 1 7 0;
#X connect 8 2 14 0;
#X connect 9 0 0 0;
#X connect 10 0 6 0;
#X connect 12 0 15 2;
#X connect 14 0 15 0;
#X connect 14 1 15 1;
#X connect 14 2 12 0;
#X connect 15 0 16 0;
#X connect 16 0 0 0;
