#N canvas 482 48 476 831 10;
#X obj 21 32 ctlin;
#X floatatom 21 54 5 0 0 0 - - -;
#X floatatom 62 57 5 0 0 0 - - -;
#X obj 21 87 pack;
#X msg 21 128 list \$1 \$2;
#X obj 20 186 outlet;
#X text 30 110 ctrl# \, val;
#X text 21 6 USE CC MODE ON LPD8;
#X connect 0 0 1 0;
#X connect 0 1 2 0;
#X connect 1 0 3 1;
#X connect 2 0 3 0;
#X connect 3 0 4 0;
#X connect 4 0 5 0;
