#N canvas 722 48 716 831 10;
#X declare -lib iemlib;
#X declare -lib iem_tab;
#X declare -lib zexy;
#X declare -lib mrpeach;
#X obj 341 11 import iemlib;
#X obj 173 10 import iem_tab;
#X obj 266 12 import zexy;
#X obj 29 24 ffrx;
#X obj 30 52 route avg avg0 avg1 avg2 avg3 avg4;
#X obj 30 89 nbx 5 14 -1e+37 1e+37 0 0 empty empty empty 0 -8 0 10
-262144 -1 -1 232.606 256;
#X obj 87 90 nbx 5 14 -1e+37 1e+37 0 0 empty empty empty 0 -8 0 10
-262144 -1 -1 141.236 256;
#X obj 144 90 nbx 5 14 -1e+37 1e+37 0 0 empty empty empty 0 -8 0 10
-262144 -1 -1 308.676 256;
#X obj 201 90 nbx 5 14 -1e+37 1e+37 0 0 empty empty empty 0 -8 0 10
-262144 -1 -1 243.911 256;
#X obj 258 90 nbx 5 14 -1e+37 1e+37 0 0 empty empty empty 0 -8 0 10
-262144 -1 -1 207.939 256;
#X obj 315 90 nbx 5 14 -1e+37 1e+37 0 0 empty empty empty 0 -8 0 10
-262144 -1 -1 261.267 256;
#X obj 145 116 sig~;
#X obj 292 291 bng 15 250 50 0 empty empty empty 17 7 0 10 -262144
-1 -1;
#X obj 320 270 bng 15 250 50 0 empty empty empty 17 7 0 10 -262144
-1 -1;
#X obj 561 367 vsl 15 128 0.012 1.2 1 0 empty empty empty 0 -9 0 10
-262144 -1 -1 11500 0;
#X obj 411 480 *~;
#X obj 224 370 ffphasors;
#X obj 371 372 vsl 15 128 0.012 1.2 1 0 empty empty empty 0 -9 0 10
-262144 -1 -1 12700 0;
#X obj 221 485 *~;
#X obj 223 538 vsl 15 128 0.012 1.2 1 0 empty empty empty 0 -9 0 10
-262144 -1 -1 4100 0;
#X obj 183 671 *~;
#X obj 410 366 ffphasors;
#X floatatom 132 450 5 0 0 0 - - -;
#X obj 134 472 sig~;
#X floatatom 488 317 5 0 0 0 - - -;
#X obj 92 502 vcf_bp8~;
#X obj 54 427 line~;
#X floatatom 55 352 5 0 0 0 - - -;
#X obj 142 740 *~ 1;
#X floatatom 289 327 5 0 0 0 - - -;
#X floatatom 404 570 5 0 0 0 - - -;
#X obj 406 590 delread~ \$0-pdel1 100;
#X floatatom 268 569 5 0 0 0 - - -;
#X obj 266 591 delread~ \$0-pdel0 200;
#X obj 270 613 hsl 128 15 0.01 1 0 0 empty empty empty -2 -8 0 10 -262144
-1 -1 11400 0;
#X obj 409 612 hsl 128 15 0.01 1 0 0 empty empty empty -2 -8 0 10 -262144
-1 -1 8900 0;
#X obj 474 564 *~;
#X obj 312 565 *~;
#X obj 271 631 hsl 128 15 0.01 1 1 0 empty empty empty -2 -8 0 10 -262144
-1 -1 10400 0;
#X obj 409 631 hsl 128 15 0.01 1 1 0 empty empty empty -2 -8 0 10 -262144
-1 -1 8100 0;
#X obj 271 656 *~;
#X obj 408 650 *~;
#X obj 268 530 delwrite~ \$0-pdel0 2000;
#X obj 425 530 delwrite~ \$0-pdel1 2000;
#X obj 49 265 expr (($f1 - 100) / 200 * 100) + 300;
#X obj 41 373 * 1;
#X msg 43 397 \$1 1000;
#X floatatom 114 397 5 0 0 0 - - -;
#X obj 132 427 init 0.7;
#X obj 564 341 init 0.5;
#X obj 352 337 init 0.5;
#X obj 58 324 init 3;
#X obj 221 349 pack 79 1 1000 4000;
#X obj 411 344 pack 60 1 100 5000;
#X obj 423 69 bng 15 250 50 0 empty empty empty 17 7 0 10 -262144 -1
-1;
#X obj 448 64 table \$0-pitches;
#X obj 427 111 tabset \$0-pitches;
#X obj 148 760 hip~ 10;
#X obj 141 783 dac~;
#X obj 291 127 bng 15 250 50 0 empty empty empty 17 7 0 10 -262144
-1 -1;
#X obj 532 16 list 60 62 63 65 67 69 71;
#X obj 427 88 list 60 63 67 71;
#X obj 453 247 tabread \$0-pitches;
#X floatatom 385 160 5 0 0 0 - - -;
#X obj 380 131 % 3;
#X obj 419 274 f;
#X obj 144 171 threshold~ 302 0 300 0;
#X obj 309 189 bng 15 250 50 0 empty empty empty 17 7 0 10 -262144
-1 -1;
#X obj 304 158 del 31;
#X obj 148 301 tabread \$0-pitches;
#X obj 149 323 f;
#X obj 153 346 - 24;
#X obj 62 162 % 3;
#X connect 3 0 4 0;
#X connect 4 0 5 0;
#X connect 4 1 6 0;
#X connect 4 2 7 0;
#X connect 4 3 8 0;
#X connect 4 4 9 0;
#X connect 4 5 10 0;
#X connect 7 0 44 0;
#X connect 7 0 11 0;
#X connect 8 0 32 0;
#X connect 9 0 30 0;
#X connect 9 0 59 0;
#X connect 10 0 64 0;
#X connect 11 0 66 0;
#X connect 12 0 70 0;
#X connect 14 0 15 1;
#X connect 15 0 20 0;
#X connect 15 0 43 0;
#X connect 16 0 18 0;
#X connect 17 0 18 1;
#X connect 18 0 20 0;
#X connect 18 0 42 0;
#X connect 19 0 20 1;
#X connect 20 0 25 0;
#X connect 20 0 28 0;
#X connect 21 0 15 0;
#X connect 22 0 23 0;
#X connect 23 0 25 2;
#X connect 24 0 53 2;
#X connect 25 0 28 0;
#X connect 26 0 25 1;
#X connect 27 0 45 1;
#X connect 28 0 57 0;
#X connect 29 0 52 2;
#X connect 30 0 31 0;
#X connect 31 0 36 0;
#X connect 31 0 41 0;
#X connect 32 0 33 0;
#X connect 33 0 37 0;
#X connect 33 0 40 0;
#X connect 34 0 37 1;
#X connect 35 0 36 1;
#X connect 36 0 43 0;
#X connect 37 0 42 0;
#X connect 38 0 40 1;
#X connect 39 0 41 1;
#X connect 40 0 28 0;
#X connect 41 0 28 0;
#X connect 44 0 45 0;
#X connect 45 0 46 0;
#X connect 45 0 47 0;
#X connect 46 0 26 0;
#X connect 48 0 22 0;
#X connect 49 0 14 0;
#X connect 50 0 17 0;
#X connect 51 0 27 0;
#X connect 52 0 16 0;
#X connect 53 0 21 0;
#X connect 54 0 61 0;
#X connect 57 0 58 0;
#X connect 57 0 58 1;
#X connect 59 0 12 0;
#X connect 59 0 68 0;
#X connect 61 0 56 0;
#X connect 62 0 65 1;
#X connect 63 0 62 0;
#X connect 64 0 63 0;
#X connect 65 0 53 0;
#X connect 66 0 12 0;
#X connect 66 1 13 0;
#X connect 67 0 65 0;
#X connect 68 0 67 0;
#X connect 69 0 70 1;
#X connect 70 0 71 0;
#X connect 71 0 52 0;
