#N canvas 722 1098 716 831 10;
#X declare -lib iemlib;
#X declare -lib iem_tab;
#X declare -lib zexy;
#X declare -lib mrpeach;
#X obj 24 354 phasor~;
#X obj 25 537 dac~;
#X obj 21 506 hip~ 10;
#X obj 188 244 /~ 2;
#X obj 451 341 line~;
#X obj 32 483 *~;
#X obj 483 160 bng 15 250 50 0 empty empty empty 17 7 0 10 -262144
-1 -1;
#X obj 76 355 phasor~;
#X obj 23 381 *~ 0.15;
#X obj 74 382 *~ 0.15;
#X obj 75 334 *~ 1.01;
#X floatatom 34 316 5 0 0 0 - - -;
#X obj 31 287 hsl 128 15 1 1.1 1 0 empty empty empty -2 -8 0 10 -262144
-1 -1 0 0;
#X msg 448 315 0 \$1;
#X obj 475 187 t b b;
#X obj 442 279 f 5000;
#X floatatom 494 218 5 0 0 0 - - -;
#X obj 533 219 hsl 128 15 50 5000 1 0 empty empty empty -2 -8 0 10
-262144 -1 -1 11300 0;
#X obj 188 272 phasor~;
#X obj 240 273 phasor~;
#X obj 187 299 *~ 0.15;
#X obj 238 300 *~ 0.15;
#X obj 296 274 *~ 1.01;
#X floatatom 311 250 5 0 0 0 - - -;
#X obj 219 226 hsl 128 15 1 1.1 1 0 empty empty empty -2 -8 0 10 -262144
-1 -1 0 0;
#X obj 21 246 mtof~;
#X floatatom 35 199 5 0 0 0 - - -;
#X obj 19 45 inlet;
#X obj 207 34 bng 15 250 50 0 empty empty empty 17 7 0 10 -262144 -1
-1;
#X obj 238 22 table \$0-pitches;
#X obj 322 120 bng 15 250 50 0 empty empty empty 17 7 0 10 -262144
-1 -1;
#X obj 325 146 random 7;
#X obj 324 165 tabread \$0-pitches;
#X obj 28 221 - 12;
#X obj 186 434 /~ 2;
#X obj 187 462 phasor~;
#X obj 239 463 phasor~;
#X obj 186 489 *~ 0.15;
#X obj 237 490 *~ 0.15;
#X obj 290 462 *~ 1.01;
#X floatatom 305 438 5 0 0 0 - - -;
#X obj 245 418 hsl 128 15 1 1.1 1 0 empty empty empty -2 -8 0 10 -262144
-1 -1 0 0;
#X obj 113 246 mtof~;
#X obj 116 223 + 7;
#X obj 32 174 unpack f f;
#X obj 507 282 f 1;
#X floatatom 533 275 5 0 0 0 - - -;
#X msg 324 187 list \$1 1;
#X obj 448 215 del 10;
#X obj 211 53 list 60 62 63 65 67 69 71;
#X obj 381 40 import iemlib;
#X text 17 22 |notenum amp=1 atk=0 dec=3000(;
#X obj 381 18 import iem_tab;
#X obj 474 20 import zexy;
#X obj 210 74 tabset \$0-pitches;
#X msg 508 321 1 \$1;
#X obj 102 541 ffrx;
#X obj 103 569 route avg avg0 avg1 avg2 avg3 avg4;
#X obj 103 607 nbx 5 14 -1e+37 1e+37 0 0 empty empty empty 0 -8 0 10
-262144 -1 -1 219.71 256;
#X obj 160 607 nbx 5 14 -1e+37 1e+37 0 0 empty empty empty 0 -8 0 10
-262144 -1 -1 131.363 256;
#X obj 217 607 nbx 5 14 -1e+37 1e+37 0 0 empty empty empty 0 -8 0 10
-262144 -1 -1 294.46 256;
#X obj 274 607 nbx 5 14 -1e+37 1e+37 0 0 empty empty empty 0 -8 0 10
-262144 -1 -1 230.096 256;
#X obj 331 607 nbx 5 14 -1e+37 1e+37 0 0 empty empty empty 0 -8 0 10
-262144 -1 -1 195.422 256;
#X obj 388 607 nbx 5 14 -1e+37 1e+37 0 0 empty empty empty 0 -8 0 10
-262144 -1 -1 247.209 256;
#X obj 158 642 sig~;
#X obj 158 717 -~;
#X obj 158 737 abs~;
#X obj 227 744 bng 15 250 50 0 empty empty empty 17 7 0 10 -262144
-1 -1;
#X obj 54 704 snapshot~;
#X obj 58 687 bang~;
#X floatatom 68 743 5 0 0 0 - - -;
#X obj 177 666 delwrite~ \$0-del0 1000;
#X obj 177 686 delread~ \$0-del0 500;
#X obj 342 746 bng 15 250 50 0 empty empty empty 17 7 0 10 -262144
-1 -1;
#X obj 167 758 *~ 1000;
#X obj 227 724 threshold~ 800 60 200;
#X floatatom 328 678 5 0 0 0 - - -;
#X obj 436 364 expr~ pow($v1 \, 6.2);
#X obj 499 610 ffphasors;
#X obj 526 585 print;
#X obj 508 550 pack 60 1 300 4000;
#X connect 0 0 8 0;
#X connect 2 0 1 0;
#X connect 2 0 1 1;
#X connect 3 0 18 0;
#X connect 3 0 22 0;
#X connect 4 0 77 0;
#X connect 6 0 14 0;
#X connect 7 0 9 0;
#X connect 8 0 5 0;
#X connect 9 0 5 0;
#X connect 10 0 7 0;
#X connect 11 0 10 1;
#X connect 12 0 11 0;
#X connect 13 0 4 0;
#X connect 14 0 48 0;
#X connect 14 1 45 0;
#X connect 15 0 13 0;
#X connect 16 0 15 1;
#X connect 17 0 16 0;
#X connect 18 0 20 0;
#X connect 19 0 21 0;
#X connect 20 0 5 0;
#X connect 21 0 5 0;
#X connect 22 0 19 0;
#X connect 23 0 22 1;
#X connect 24 0 23 0;
#X connect 25 0 0 0;
#X connect 25 0 10 0;
#X connect 25 0 3 0;
#X connect 26 0 33 0;
#X connect 26 0 43 0;
#X connect 27 0 44 0;
#X connect 28 0 49 0;
#X connect 30 0 31 0;
#X connect 31 0 32 0;
#X connect 32 0 47 0;
#X connect 33 0 25 0;
#X connect 34 0 35 0;
#X connect 34 0 39 0;
#X connect 35 0 37 0;
#X connect 36 0 38 0;
#X connect 37 0 5 0;
#X connect 38 0 5 0;
#X connect 39 0 36 0;
#X connect 40 0 39 1;
#X connect 41 0 40 0;
#X connect 42 0 34 0;
#X connect 43 0 42 0;
#X connect 44 0 26 0;
#X connect 45 0 55 0;
#X connect 46 0 45 1;
#X connect 47 0 44 0;
#X connect 48 0 15 0;
#X connect 49 0 54 0;
#X connect 55 0 4 0;
#X connect 56 0 57 0;
#X connect 57 0 58 0;
#X connect 57 1 59 0;
#X connect 57 2 60 0;
#X connect 57 3 61 0;
#X connect 57 4 62 0;
#X connect 57 5 63 0;
#X connect 60 0 64 0;
#X connect 60 0 65 1;
#X connect 64 0 71 0;
#X connect 65 0 66 0;
#X connect 66 0 74 0;
#X connect 67 0 30 0;
#X connect 68 0 70 0;
#X connect 69 0 68 0;
#X connect 72 0 65 0;
#X connect 73 0 6 0;
#X connect 73 0 80 0;
#X connect 74 0 68 0;
#X connect 74 0 75 0;
#X connect 75 0 67 0;
#X connect 75 1 73 0;
#X connect 76 0 72 0;
#X connect 77 0 5 1;
#X connect 78 0 2 0;
#X connect 80 0 78 0;
#X connect 80 0 79 0;
