#N canvas 722 1098 716 831 10;
#X obj 115 181 phasor~;
#X obj 165 181 phasor~;
#X obj 113 208 *~ 0.3;
#X obj 164 204 *~ 0.3;
#X obj 175 335 dac~;
#X obj 171 304 hip~ 10;
#X floatatom 109 100 5 0 0 0 - - -;
#X obj 115 121 sig~;
#X obj 169 152 /~ 2;
#X obj 269 250 line~;
#X obj 274 137 t b b;
#X msg 277 205 1;
#X obj 182 281 *~;
#X obj 280 80 bng 15 250 50 0 empty empty empty 17 7 0 10 -262144 -1
-1;
#X obj 253 274 expr~ pow($v1 \, 3);
#X msg 266 224 0 2000;
#X connect 0 0 2 0;
#X connect 1 0 3 0;
#X connect 2 0 12 0;
#X connect 3 0 12 0;
#X connect 5 0 4 0;
#X connect 5 0 4 1;
#X connect 6 0 7 0;
#X connect 7 0 0 0;
#X connect 7 0 8 0;
#X connect 8 0 1 0;
#X connect 9 0 14 0;
#X connect 10 0 15 0;
#X connect 10 1 11 0;
#X connect 11 0 9 0;
#X connect 12 0 5 0;
#X connect 13 0 10 0;
#X connect 14 0 12 1;
#X connect 15 0 9 0;
