#N canvas 722 48 716 831 10;
#X declare -lib iemlib;
#X declare -lib iem_tab;
#X declare -lib zexy;
#X declare -lib mrpeach;
#X declare -lib ggee;
#X obj 341 11 import iemlib;
#X obj 173 10 import iem_tab;
#X obj 266 12 import zexy;
#X obj 29 24 ffrx;
#X obj 30 52 route avg avg0 avg1 avg2 avg3 avg4;
#X obj 31 90 nbx 5 14 -1e+37 1e+37 0 0 empty empty empty 0 -8 0 10
-262144 -1 -1 187.725 256;
#X obj 87 90 nbx 5 14 -1e+37 1e+37 0 0 empty empty empty 0 -8 0 10
-262144 -1 -1 159.277 256;
#X obj 144 90 nbx 5 14 -1e+37 1e+37 0 0 empty empty empty 0 -8 0 10
-262144 -1 -1 210.403 256;
#X obj 201 90 nbx 5 14 -1e+37 1e+37 0 0 empty empty empty 0 -8 0 10
-262144 -1 -1 184.984 256;
#X obj 258 90 nbx 5 14 -1e+37 1e+37 0 0 empty empty empty 0 -8 0 10
-262144 -1 -1 190.258 256;
#X obj 315 90 nbx 5 14 -1e+37 1e+37 0 0 empty empty empty 0 -8 0 10
-262144 -1 -1 193.701 256;
#X obj 611 372 vsl 15 128 0.012 1.2 1 0 empty empty empty 0 -9 0 10
-262144 -1 -1 9659 0;
#X obj 466 602 *~;
#X obj 224 370 ffphasors;
#X obj 371 372 vsl 15 128 0.012 1.2 1 0 empty empty empty 0 -9 0 10
-262144 -1 -1 11256 0;
#X obj 222 564 *~;
#X obj 152 526 vsl 15 128 0.012 1.2 1 0 empty empty empty 0 -9 0 10
-262144 -1 -1 10800 0;
#X obj 131 672 *~;
#X floatatom 539 325 5 0 0 0 - - -;
#X obj 142 740 *~ 1;
#X floatatom 288 303 5 0 0 0 - - -;
#X obj 356 682 hsl 128 15 0.01 1 0 0 empty empty empty -2 -8 0 10 -262144
-1 -1 3580 0;
#X obj 594 681 hsl 128 15 0.01 1 0 0 empty empty empty -2 -8 0 10 -262144
-1 -1 0 0;
#X obj 562 703 *~;
#X obj 337 700 *~;
#X obj 315 750 hsl 128 15 0.01 1 1 0 empty empty empty -2 -8 0 10 -262144
-1 -1 11800 0;
#X obj 517 764 hsl 128 15 0.01 1 1 0 empty empty empty -2 -8 0 10 -262144
-1 -1 7000 0;
#X obj 297 767 *~;
#X obj 497 787 *~;
#X obj 307 637 delwrite~ \$0-pdel0 2000;
#X obj 510 628 delwrite~ \$0-pdel1 2000;
#X obj 615 345 init 0.5;
#X obj 352 337 init 0.5;
#X obj 423 69 bng 15 250 50 0 empty empty empty 17 7 0 10 -262144 -1
-1;
#X obj 448 64 table \$0-pitches;
#X obj 427 111 tabset \$0-pitches;
#X obj 148 760 hip~ 10;
#X obj 141 783 dac~;
#X obj 427 88 list 60 63 67 71;
#X obj 419 212 tabread \$0-pitches;
#X floatatom 385 160 5 0 0 0 - - -;
#X obj 380 131 % 3;
#X obj 47 244 tabread \$0-pitches;
#X obj 31 269 f;
#X obj 32 128 nbx 5 14 -1e+37 1e+37 0 0 empty empty empty 0 -8 0 10
-262144 -1 -1 187 256;
#X obj 30 220 metro;
#X obj 9 201 bng 15 250 50 0 empty empty empty 17 7 0 10 -262144 -1
-1;
#X msg 69 220 stop;
#X obj 10 242 bng 15 250 50 0 empty empty empty 17 7 0 10 -262144 -1
-1;
#X floatatom 68 181 5 0 0 0 - - -;
#X obj 31 108 % 2000;
#X obj 94 132 % 3;
#X obj 35 292 - 0;
#X obj 31 146 + 8000;
#X obj 578 271 f;
#X obj 578 127 nbx 5 14 -1e+37 1e+37 0 0 empty empty empty 0 -8 0 10
-262144 -1 -1 210 256;
#X obj 577 222 metro;
#X obj 577 204 bng 15 250 50 0 empty empty empty 17 7 0 10 -262144
-1 -1;
#X obj 585 243 bng 15 250 50 0 empty empty empty 17 7 0 10 -262144
-1 -1;
#X obj 577 107 % 2000;
#X obj 582 294 + 19;
#X obj 577 145 + 4000;
#X obj 235 276 osc~;
#X obj 391 270 osc~;
#X obj 234 252 sig~;
#X obj 393 248 sig~;
#X obj 461 349 pack 60 1 2000 20000;
#X floatatom 244 195 5 0 0 0 - - -;
#X floatatom 352 195 5 0 0 0 - - -;
#X floatatom 609 273 5 0 0 0 - - -;
#X floatatom 100 291 5 0 0 0 - - -;
#X floatatom 117 331 5 0 0 0 - - -;
#X obj 58 350 * 1;
#X floatatom 341 560 5 0 0 0 - - -;
#X obj 221 326 pack 79 1 3000 15000;
#X floatatom 65 273 5 0 0 0 - - -;
#X obj 71 296 i;
#X obj 460 371 ffphasors;
#X obj 437 10 import ggee;
#X obj 163 496 moog~;
#X obj 131 450 sig~;
#X obj 85 476 sig~;
#X floatatom 126 425 5 0 0 0 - - -;
#X floatatom 119 358 5 0 0 0 - - -;
#X floatatom 86 454 5 0 0 0 - - -;
#X obj 546 556 sig~;
#X obj 487 539 sig~;
#X floatatom 546 534 5 0 0 0 - - -;
#X floatatom 489 519 5 0 0 0 - - -;
#X obj 465 575 moog~;
#X obj 6 698 writesf~ 2;
#X msg 36 598 open /tmp/wav.wav;
#X msg 46 622 start;
#X msg 59 648 stop;
#X obj 486 496 % 3;
#X obj 544 510 expr ($f1 % 10) / 10 * 20 + 400;
#X obj 21 396 expr ($f1 % 10) / 10 * 3000 + 1300;
#X obj 741 74 lpd8;
#X obj 742 97 route 16 17 18 19 20 21 22 23;
#X floatatom 747 449 5 0 0 0 - - -;
#X obj 746 426 expr $f1 / 128 * 10000;
#X obj 747 474 s \$0-ctl16;
#X msg 793 446 1000;
#X msg 832 446 5000;
#X obj 286 282 r \$0-ctl16;
#X floatatom 759 373 5 0 0 0 - - -;
#X obj 758 350 expr $f1 / 128 * 10000;
#X msg 805 370 1000;
#X msg 844 370 5000;
#X obj 759 398 s \$0-ctl17;
#X obj 508 299 r \$0-ctl17;
#X obj 779 323 s \$0-ctl18;
#X obj 781 297 / 128;
#X obj 362 313 r \$0-ctl18;
#X obj 802 248 / 128;
#X obj 800 274 s \$0-ctl19;
#X obj 621 315 r \$0-ctl19;
#X obj 820 221 s \$0-ctl20;
#X obj 343 537 r \$0-ctl20;
#X obj 846 170 s \$0-ctl21;
#X obj 844 149 / 128;
#X obj 349 660 r \$0-ctl21;
#X obj 821 198 / 128;
#X obj 83 432 % 3;
#X obj 296 586 pack 0 30;
#X obj 296 728 vd~ \$0-pdel0 200;
#X obj 932 156 / 128;
#X obj 909 205 / 128;
#X obj 908 228 s \$0-ctl22;
#X obj 934 178 s \$0-ctl23;
#X obj 497 743 vd~ \$0-pdel1 100;
#X floatatom 767 596 5 0 0 0 - - -;
#X obj 670 613 line~;
#X obj 503 717 /~;
#X obj 286 705 /~;
#X obj 369 605 line~;
#X obj 369 582 pack 0 10;
#X obj 669 590 pack 0 10;
#X obj 233 216 * 0.5;
#X obj 341 216 * 0.25;
#X obj 297 609 line~;
#X obj 499 673 pack 0 30;
#X obj 499 693 line~;
#X obj 99 310 i 1;
#X obj 670 563 r \$0-ctl22;
#X obj 591 660 r \$0-ctl23;
#X connect 3 0 4 0;
#X connect 4 0 5 0;
#X connect 4 1 6 0;
#X connect 4 2 7 0;
#X connect 4 3 8 0;
#X connect 4 4 9 0;
#X connect 4 5 10 0;
#X connect 5 0 50 0;
#X connect 6 0 51 0;
#X connect 7 0 59 0;
#X connect 7 0 96 0;
#X connect 7 0 123 0;
#X connect 7 0 138 0;
#X connect 7 0 139 0;
#X connect 8 0 94 0;
#X connect 8 0 95 0;
#X connect 8 0 124 0;
#X connect 9 0 141 0;
#X connect 10 0 41 0;
#X connect 11 0 12 1;
#X connect 12 0 17 0;
#X connect 12 0 30 0;
#X connect 13 0 79 0;
#X connect 14 0 15 1;
#X connect 15 0 17 0;
#X connect 15 0 29 0;
#X connect 16 0 17 1;
#X connect 17 0 19 0;
#X connect 18 0 66 2;
#X connect 19 0 36 0;
#X connect 20 0 74 2;
#X connect 21 0 24 1;
#X connect 22 0 23 1;
#X connect 23 0 30 0;
#X connect 24 0 29 0;
#X connect 25 0 27 1;
#X connect 26 0 28 1;
#X connect 27 0 19 0;
#X connect 28 0 19 0;
#X connect 31 0 11 0;
#X connect 32 0 14 0;
#X connect 33 0 38 0;
#X connect 36 0 37 0;
#X connect 36 0 37 1;
#X connect 36 0 90 0;
#X connect 36 0 90 1;
#X connect 38 0 35 0;
#X connect 39 0 54 1;
#X connect 40 0 39 0;
#X connect 41 0 40 0;
#X connect 42 0 43 1;
#X connect 43 0 52 0;
#X connect 44 0 53 0;
#X connect 45 0 43 0;
#X connect 45 0 48 0;
#X connect 46 0 45 0;
#X connect 47 0 45 0;
#X connect 49 0 42 0;
#X connect 50 0 44 0;
#X connect 51 0 49 0;
#X connect 52 0 72 0;
#X connect 53 0 45 1;
#X connect 54 0 60 0;
#X connect 55 0 61 0;
#X connect 56 0 54 0;
#X connect 56 0 58 0;
#X connect 57 0 56 0;
#X connect 59 0 55 0;
#X connect 60 0 66 0;
#X connect 61 0 56 1;
#X connect 62 0 13 1;
#X connect 62 0 13 2;
#X connect 62 0 13 3;
#X connect 63 0 77 1;
#X connect 63 0 77 2;
#X connect 63 0 77 3;
#X connect 64 0 62 0;
#X connect 65 0 63 0;
#X connect 66 0 77 0;
#X connect 67 0 138 1;
#X connect 68 0 139 1;
#X connect 69 0 60 1;
#X connect 70 0 143 0;
#X connect 71 0 72 1;
#X connect 72 0 74 0;
#X connect 72 0 83 0;
#X connect 73 0 136 0;
#X connect 74 0 13 0;
#X connect 75 0 76 0;
#X connect 76 0 52 1;
#X connect 77 0 89 0;
#X connect 79 0 15 0;
#X connect 80 0 79 1;
#X connect 81 0 79 2;
#X connect 82 0 80 0;
#X connect 84 0 81 0;
#X connect 85 0 89 1;
#X connect 86 0 89 2;
#X connect 87 0 85 0;
#X connect 88 0 86 0;
#X connect 89 0 12 0;
#X connect 91 0 90 0;
#X connect 92 0 90 0;
#X connect 93 0 90 0;
#X connect 94 0 88 0;
#X connect 95 0 87 0;
#X connect 96 0 82 0;
#X connect 97 0 98 0;
#X connect 98 0 100 0;
#X connect 98 1 106 0;
#X connect 98 2 112 0;
#X connect 98 3 114 0;
#X connect 98 4 122 0;
#X connect 98 5 120 0;
#X connect 98 6 127 0;
#X connect 98 7 126 0;
#X connect 99 0 101 0;
#X connect 100 0 99 0;
#X connect 102 0 101 0;
#X connect 103 0 101 0;
#X connect 104 0 20 0;
#X connect 105 0 109 0;
#X connect 106 0 105 0;
#X connect 107 0 109 0;
#X connect 108 0 109 0;
#X connect 110 0 18 0;
#X connect 112 0 111 0;
#X connect 113 0 14 0;
#X connect 114 0 115 0;
#X connect 116 0 31 0;
#X connect 118 0 73 0;
#X connect 120 0 119 0;
#X connect 121 0 21 0;
#X connect 122 0 117 0;
#X connect 123 0 84 0;
#X connect 124 0 140 0;
#X connect 125 0 24 0;
#X connect 125 0 27 0;
#X connect 126 0 129 0;
#X connect 127 0 128 0;
#X connect 130 0 28 0;
#X connect 130 0 23 0;
#X connect 132 0 133 1;
#X connect 133 0 130 0;
#X connect 134 0 125 0;
#X connect 135 0 134 1;
#X connect 136 0 135 0;
#X connect 137 0 132 0;
#X connect 138 0 64 0;
#X connect 139 0 65 0;
#X connect 140 0 134 0;
#X connect 141 0 142 0;
#X connect 142 0 133 0;
#X connect 143 0 71 0;
#X connect 144 0 131 0;
#X connect 144 0 137 0;
#X connect 145 0 22 0;
