#N canvas 722 48 716 831 10;
#X declare -lib iemlib;
#X declare -lib iem_tab;
#X declare -lib zexy;
#X declare -lib mrpeach;
#X obj 341 11 import iemlib;
#X obj 173 10 import iem_tab;
#X obj 266 12 import zexy;
#X obj 29 24 ffrx;
#X obj 30 52 route avg avg0 avg1 avg2 avg3 avg4;
#X obj 31 90 nbx 5 14 -1e+37 1e+37 0 0 empty empty empty 0 -8 0 10
-262144 -1 -1 222.659 256;
#X obj 87 90 nbx 5 14 -1e+37 1e+37 0 0 empty empty empty 0 -8 0 10
-262144 -1 -1 131.111 256;
#X obj 144 90 nbx 5 14 -1e+37 1e+37 0 0 empty empty empty 0 -8 0 10
-262144 -1 -1 294.632 256;
#X obj 201 90 nbx 5 14 -1e+37 1e+37 0 0 empty empty empty 0 -8 0 10
-262144 -1 -1 232.37 256;
#X obj 258 90 nbx 5 14 -1e+37 1e+37 0 0 empty empty empty 0 -8 0 10
-262144 -1 -1 200.566 256;
#X obj 315 90 nbx 5 14 -1e+37 1e+37 0 0 empty empty empty 0 -8 0 10
-262144 -1 -1 254.617 256;
#X obj 561 367 vsl 15 128 0.012 1.2 1 0 empty empty empty 0 -9 0 10
-262144 -1 -1 9500 0;
#X obj 411 480 *~;
#X obj 224 370 ffphasors;
#X obj 371 372 vsl 15 128 0.012 1.2 1 0 empty empty empty 0 -9 0 10
-262144 -1 -1 9507 0;
#X obj 221 485 *~;
#X obj 223 538 vsl 15 128 0.012 1.2 1 0 empty empty empty 0 -9 0 10
-262144 -1 -1 12100 0;
#X obj 183 671 *~;
#X floatatom 488 317 5 0 0 0 - - -;
#X obj 142 740 *~ 1;
#X floatatom 288 303 5 0 0 0 - - -;
#X floatatom 473 562 5 0 0 0 - - -;
#X obj 472 591 delread~ \$0-pdel1 100;
#X floatatom 266 550 5 0 0 0 - - -;
#X obj 267 591 delread~ \$0-pdel0 200;
#X obj 338 553 hsl 128 15 0.01 1 0 0 empty empty empty -2 -8 0 10 -262144
-1 -1 12300 0;
#X obj 552 562 hsl 128 15 0.01 1 0 0 empty empty empty -2 -8 0 10 -262144
-1 -1 10500 0;
#X obj 517 562 *~;
#X obj 308 568 *~;
#X obj 286 638 hsl 128 15 0.01 1 1 0 empty empty empty -2 -8 0 10 -262144
-1 -1 12000 0;
#X obj 475 632 hsl 128 15 0.01 1 1 0 empty empty empty -2 -8 0 10 -262144
-1 -1 2900 0;
#X obj 271 656 *~;
#X obj 468 664 *~;
#X obj 268 530 delwrite~ \$0-pdel0 2000;
#X obj 468 528 delwrite~ \$0-pdel1 2000;
#X obj 564 341 init 0.5;
#X obj 352 337 init 0.5;
#X obj 423 69 bng 15 250 50 0 empty empty empty 17 7 0 10 -262144 -1
-1;
#X obj 448 64 table \$0-pitches;
#X obj 427 111 tabset \$0-pitches;
#X obj 148 760 hip~ 10;
#X obj 141 783 dac~;
#X obj 427 88 list 60 63 67 71;
#X obj 419 212 tabread \$0-pitches;
#X floatatom 385 160 5 0 0 0 - - -;
#X obj 380 131 % 3;
#X obj 47 244 tabread \$0-pitches;
#X obj 31 269 f;
#X obj 269 568 / 4;
#X obj 32 128 nbx 5 14 -1e+37 1e+37 0 0 empty empty empty 0 -8 0 10
-262144 -1 -1 222 256;
#X obj 30 220 metro;
#X obj 9 201 bng 15 250 50 0 empty empty empty 17 7 0 10 -262144 -1
-1;
#X msg 69 220 stop;
#X obj 10 242 bng 15 250 50 0 empty empty empty 17 7 0 10 -262144 -1
-1;
#X floatatom 68 181 5 0 0 0 - - -;
#X obj 31 108 % 2000;
#X obj 94 132 % 3;
#X obj 35 292 - 0;
#X obj 31 146 + 8000;
#X obj 577 268 f;
#X obj 578 127 nbx 5 14 -1e+37 1e+37 0 0 empty empty empty 0 -8 0 10
-262144 -1 -1 294 256;
#X obj 576 219 metro;
#X obj 555 200 bng 15 250 50 0 empty empty empty 17 7 0 10 -262144
-1 -1;
#X obj 556 241 bng 15 250 50 0 empty empty empty 17 7 0 10 -262144
-1 -1;
#X obj 577 107 % 2000;
#X obj 581 291 + 19;
#X obj 577 145 + 4000;
#X obj 235 276 osc~;
#X obj 391 270 osc~;
#X obj 234 252 sig~;
#X obj 393 248 sig~;
#X obj 411 344 pack 60 1 2000 20000;
#X obj 233 216 *;
#X floatatom 244 195 5 0 0 0 - - -;
#X obj 341 216 *;
#X floatatom 352 195 5 0 0 0 - - -;
#X obj 410 366 ffphasors;
#X floatatom 608 270 5 0 0 0 - - -;
#X floatatom 100 291 5 0 0 0 - - -;
#X floatatom 95 346 5 0 0 0 - - -;
#X obj 99 310 i;
#X obj 58 350 * 1;
#X floatatom 312 504 5 0 0 0 - - -;
#X msg 288 258 1000;
#X obj 221 326 pack 79 1 3000 15000;
#X msg 327 258 5000;
#X floatatom 65 273 5 0 0 0 - - -;
#X obj 71 296 i;
#X connect 3 0 4 0;
#X connect 4 0 5 0;
#X connect 4 1 6 0;
#X connect 4 2 7 0;
#X connect 4 3 8 0;
#X connect 4 4 9 0;
#X connect 4 5 10 0;
#X connect 5 0 55 0;
#X connect 6 0 56 0;
#X connect 7 0 64 0;
#X connect 7 0 72 0;
#X connect 7 0 74 0;
#X connect 8 0 23 0;
#X connect 9 0 21 0;
#X connect 10 0 45 0;
#X connect 11 0 12 1;
#X connect 12 0 17 0;
#X connect 12 0 34 0;
#X connect 13 0 15 0;
#X connect 14 0 15 1;
#X connect 15 0 17 0;
#X connect 15 0 33 0;
#X connect 16 0 17 1;
#X connect 17 0 19 0;
#X connect 18 0 71 2;
#X connect 19 0 40 0;
#X connect 20 0 84 2;
#X connect 21 0 22 0;
#X connect 22 0 27 0;
#X connect 22 0 32 0;
#X connect 23 0 48 0;
#X connect 24 0 28 0;
#X connect 24 0 31 0;
#X connect 25 0 28 1;
#X connect 26 0 27 1;
#X connect 27 0 34 0;
#X connect 28 0 33 0;
#X connect 29 0 31 1;
#X connect 30 0 32 1;
#X connect 31 0 19 0;
#X connect 32 0 19 0;
#X connect 35 0 11 0;
#X connect 36 0 14 0;
#X connect 37 0 42 0;
#X connect 40 0 41 0;
#X connect 40 0 41 1;
#X connect 42 0 39 0;
#X connect 43 0 59 1;
#X connect 44 0 43 0;
#X connect 45 0 44 0;
#X connect 46 0 47 1;
#X connect 47 0 57 0;
#X connect 48 0 24 0;
#X connect 49 0 58 0;
#X connect 50 0 47 0;
#X connect 50 0 53 0;
#X connect 51 0 50 0;
#X connect 52 0 50 0;
#X connect 54 0 46 0;
#X connect 55 0 49 0;
#X connect 56 0 54 0;
#X connect 57 0 81 0;
#X connect 58 0 50 1;
#X connect 59 0 65 0;
#X connect 60 0 66 0;
#X connect 61 0 59 0;
#X connect 61 0 63 0;
#X connect 62 0 61 0;
#X connect 64 0 60 0;
#X connect 65 0 71 0;
#X connect 66 0 61 1;
#X connect 67 0 13 1;
#X connect 67 0 13 2;
#X connect 67 0 13 3;
#X connect 68 0 76 1;
#X connect 68 0 76 2;
#X connect 68 0 76 3;
#X connect 69 0 67 0;
#X connect 70 0 68 0;
#X connect 71 0 76 0;
#X connect 72 0 69 0;
#X connect 73 0 72 1;
#X connect 74 0 70 0;
#X connect 75 0 74 1;
#X connect 76 0 12 0;
#X connect 77 0 65 1;
#X connect 78 0 80 0;
#X connect 79 0 81 1;
#X connect 80 0 79 0;
#X connect 81 0 84 0;
#X connect 82 0 48 1;
#X connect 83 0 20 0;
#X connect 84 0 13 0;
#X connect 85 0 20 0;
#X connect 86 0 87 0;
#X connect 87 0 57 1;
