#N canvas 722 48 716 831 10;
#X declare -lib iemlib;
#X declare -lib iem_tab;
#X declare -lib zexy;
#X declare -lib mrpeach;
#X declare -lib ggee;
#X obj 341 11 import iemlib;
#X obj 173 10 import iem_tab;
#X obj 266 12 import zexy;
#X obj 29 24 ffrx;
#X obj 30 52 route avg avg0 avg1 avg2 avg3 avg4;
#X obj 31 90 nbx 5 14 -1e+37 1e+37 0 0 empty empty empty 0 -8 0 10
-262144 -1 -1 222.437 256;
#X obj 87 90 nbx 5 14 -1e+37 1e+37 0 0 empty empty empty 0 -8 0 10
-262144 -1 -1 131.512 256;
#X obj 144 90 nbx 5 14 -1e+37 1e+37 0 0 empty empty empty 0 -8 0 10
-262144 -1 -1 293.502 256;
#X obj 201 90 nbx 5 14 -1e+37 1e+37 0 0 empty empty empty 0 -8 0 10
-262144 -1 -1 230.568 256;
#X obj 258 90 nbx 5 14 -1e+37 1e+37 0 0 empty empty empty 0 -8 0 10
-262144 -1 -1 200.699 256;
#X obj 315 90 nbx 5 14 -1e+37 1e+37 0 0 empty empty empty 0 -8 0 10
-262144 -1 -1 255.904 256;
#X obj 561 367 vsl 15 128 0.012 1.2 1 0 empty empty empty 0 -9 0 10
-262144 -1 -1 11100 0;
#X obj 409 524 *~;
#X obj 224 370 ffphasors;
#X obj 371 372 vsl 15 128 0.012 1.2 1 0 empty empty empty 0 -9 0 10
-262144 -1 -1 12700 0;
#X obj 222 564 *~;
#X obj 152 526 vsl 15 128 0.012 1.2 1 0 empty empty empty 0 -9 0 10
-262144 -1 -1 10500 0;
#X obj 131 672 *~;
#X floatatom 488 317 5 0 0 0 - - -;
#X obj 142 740 *~ 1;
#X floatatom 288 303 5 0 0 0 - - -;
#X floatatom 502 674 5 0 0 0 - - -;
#X obj 501 703 delread~ \$0-pdel1 100;
#X floatatom 295 662 5 0 0 0 - - -;
#X obj 296 703 delread~ \$0-pdel0 200;
#X obj 367 665 hsl 128 15 0.01 1 0 0 empty empty empty -2 -8 0 10 -262144
-1 -1 9029 0;
#X obj 581 674 hsl 128 15 0.01 1 0 0 empty empty empty -2 -8 0 10 -262144
-1 -1 5300 0;
#X obj 546 674 *~;
#X obj 337 680 *~;
#X obj 315 750 hsl 128 15 0.01 1 1 0 empty empty empty -2 -8 0 10 -262144
-1 -1 6101 0;
#X obj 504 744 hsl 128 15 0.01 1 1 0 empty empty empty -2 -8 0 10 -262144
-1 -1 10300 0;
#X obj 300 768 *~;
#X obj 497 776 *~;
#X obj 297 642 delwrite~ \$0-pdel0 2000;
#X obj 497 640 delwrite~ \$0-pdel1 2000;
#X obj 564 341 init 0.5;
#X obj 352 337 init 0.5;
#X obj 423 69 bng 15 250 50 0 empty empty empty 17 7 0 10 -262144 -1
-1;
#X obj 448 64 table \$0-pitches;
#X obj 427 111 tabset \$0-pitches;
#X obj 148 760 hip~ 10;
#X obj 141 783 dac~;
#X obj 427 88 list 60 63 67 71;
#X obj 419 212 tabread \$0-pitches;
#X floatatom 385 160 5 0 0 0 - - -;
#X obj 380 131 % 3;
#X obj 47 244 tabread \$0-pitches;
#X obj 31 269 f;
#X obj 298 680 / 4;
#X obj 32 128 nbx 5 14 -1e+37 1e+37 0 0 empty empty empty 0 -8 0 10
-262144 -1 -1 222 256;
#X obj 30 220 metro;
#X obj 9 201 bng 15 250 50 0 empty empty empty 17 7 0 10 -262144 -1
-1;
#X msg 69 220 stop;
#X obj 10 242 bng 15 250 50 0 empty empty empty 17 7 0 10 -262144 -1
-1;
#X floatatom 68 181 5 0 0 0 - - -;
#X obj 31 108 % 2000;
#X obj 94 132 % 3;
#X obj 35 292 - 0;
#X obj 31 146 + 8000;
#X obj 577 268 f;
#X obj 578 127 nbx 5 14 -1e+37 1e+37 0 0 empty empty empty 0 -8 0 10
-262144 -1 -1 293 256;
#X obj 576 219 metro;
#X obj 555 200 bng 15 250 50 0 empty empty empty 17 7 0 10 -262144
-1 -1;
#X obj 556 241 bng 15 250 50 0 empty empty empty 17 7 0 10 -262144
-1 -1;
#X obj 577 107 % 2000;
#X obj 581 291 + 19;
#X obj 577 145 + 4000;
#X obj 235 276 osc~;
#X obj 391 270 osc~;
#X obj 234 252 sig~;
#X obj 393 248 sig~;
#X obj 411 344 pack 60 1 2000 20000;
#X floatatom 244 195 5 0 0 0 - - -;
#X floatatom 352 195 5 0 0 0 - - -;
#X floatatom 608 270 5 0 0 0 - - -;
#X floatatom 100 291 5 0 0 0 - - -;
#X floatatom 95 346 5 0 0 0 - - -;
#X obj 99 310 i;
#X obj 58 350 * 1;
#X floatatom 334 620 5 0 0 0 - - -;
#X msg 288 258 1000;
#X obj 221 326 pack 79 1 3000 15000;
#X msg 327 258 5000;
#X floatatom 65 273 5 0 0 0 - - -;
#X obj 71 296 i;
#X obj 410 366 ffphasors;
#X obj 233 216 * 1;
#X obj 341 216 * 1;
#X obj 437 10 import ggee;
#X obj 222 529 moog~;
#X obj 187 473 sig~;
#X obj 85 476 sig~;
#X floatatom 176 439 5 0 0 0 - - -;
#X floatatom 97 373 5 0 0 0 - - -;
#X floatatom 86 454 5 0 0 0 - - -;
#X obj 83 432 % 5;
#X obj 628 594 sig~;
#X obj 525 595 sig~;
#X floatatom 617 560 5 0 0 0 - - -;
#X floatatom 527 575 5 0 0 0 - - -;
#X obj 408 497 moog~;
#X obj 6 698 writesf~ 2;
#X msg 36 598 open /tmp/wav.wav;
#X msg 46 622 start;
#X msg 59 648 stop;
#X obj 524 552 % 3;
#X obj 493 513 expr ($f1 % 10) / 10 * 20 + 400;
#X obj 21 396 expr ($f1 % 10) / 10 * 3000 + 1300;
#X connect 3 0 4 0;
#X connect 4 0 5 0;
#X connect 4 1 6 0;
#X connect 4 2 7 0;
#X connect 4 3 8 0;
#X connect 4 4 9 0;
#X connect 4 5 10 0;
#X connect 5 0 55 0;
#X connect 6 0 56 0;
#X connect 7 0 64 0;
#X connect 7 0 86 0;
#X connect 7 0 87 0;
#X connect 7 0 95 0;
#X connect 7 0 107 0;
#X connect 8 0 23 0;
#X connect 8 0 105 0;
#X connect 8 0 106 0;
#X connect 9 0 21 0;
#X connect 10 0 45 0;
#X connect 11 0 12 1;
#X connect 12 0 17 0;
#X connect 12 0 34 0;
#X connect 13 0 89 0;
#X connect 14 0 15 1;
#X connect 15 0 17 0;
#X connect 15 0 33 0;
#X connect 16 0 17 1;
#X connect 17 0 19 0;
#X connect 18 0 71 2;
#X connect 19 0 40 0;
#X connect 20 0 81 2;
#X connect 21 0 22 0;
#X connect 22 0 27 0;
#X connect 22 0 32 0;
#X connect 23 0 48 0;
#X connect 24 0 28 0;
#X connect 24 0 31 0;
#X connect 25 0 28 1;
#X connect 26 0 27 1;
#X connect 27 0 34 0;
#X connect 28 0 33 0;
#X connect 29 0 31 1;
#X connect 30 0 32 1;
#X connect 31 0 19 0;
#X connect 32 0 19 0;
#X connect 35 0 11 0;
#X connect 36 0 14 0;
#X connect 37 0 42 0;
#X connect 40 0 41 0;
#X connect 40 0 41 1;
#X connect 40 0 101 0;
#X connect 40 0 101 1;
#X connect 42 0 39 0;
#X connect 43 0 59 1;
#X connect 44 0 43 0;
#X connect 45 0 44 0;
#X connect 46 0 47 1;
#X connect 47 0 57 0;
#X connect 48 0 24 0;
#X connect 49 0 58 0;
#X connect 50 0 47 0;
#X connect 50 0 53 0;
#X connect 51 0 50 0;
#X connect 52 0 50 0;
#X connect 54 0 46 0;
#X connect 55 0 49 0;
#X connect 56 0 54 0;
#X connect 57 0 78 0;
#X connect 58 0 50 1;
#X connect 59 0 65 0;
#X connect 60 0 66 0;
#X connect 61 0 59 0;
#X connect 61 0 63 0;
#X connect 62 0 61 0;
#X connect 64 0 60 0;
#X connect 65 0 71 0;
#X connect 66 0 61 1;
#X connect 67 0 13 1;
#X connect 67 0 13 2;
#X connect 67 0 13 3;
#X connect 68 0 85 1;
#X connect 68 0 85 2;
#X connect 68 0 85 3;
#X connect 69 0 67 0;
#X connect 70 0 68 0;
#X connect 71 0 85 0;
#X connect 72 0 86 1;
#X connect 73 0 87 1;
#X connect 74 0 65 1;
#X connect 75 0 77 0;
#X connect 76 0 78 1;
#X connect 77 0 76 0;
#X connect 78 0 81 0;
#X connect 78 0 93 0;
#X connect 79 0 48 1;
#X connect 80 0 20 0;
#X connect 81 0 13 0;
#X connect 82 0 20 0;
#X connect 83 0 84 0;
#X connect 84 0 57 1;
#X connect 85 0 100 0;
#X connect 86 0 69 0;
#X connect 87 0 70 0;
#X connect 89 0 15 0;
#X connect 90 0 89 1;
#X connect 91 0 89 2;
#X connect 92 0 90 0;
#X connect 94 0 91 0;
#X connect 95 0 94 0;
#X connect 96 0 100 1;
#X connect 97 0 100 2;
#X connect 98 0 96 0;
#X connect 99 0 97 0;
#X connect 100 0 12 0;
#X connect 102 0 101 0;
#X connect 103 0 101 0;
#X connect 104 0 101 0;
#X connect 105 0 99 0;
#X connect 106 0 98 0;
#X connect 107 0 92 0;
