#N canvas 962 1098 476 831 10;
#X obj 53 148 table \$0-saw;
#X obj 60 12 bng 15 250 50 0 empty empty empty 17 7 0 10 -262144 -1
-1;
#X obj 59 29 pack \$0;
#X msg 53 109 \; \$1-saw sinesum 44100 1 0.5 0.33 0.25;
#X msg 77 74 \; \$1-saw normalize 1;
#X obj 60 49 t l l;
#X connect 1 0 2 0;
#X connect 2 0 5 0;
#X connect 5 0 4 0;
#X connect 5 1 3 0;
