#N canvas 722 1098 716 831 10;
#X obj 166 602 osc~;
#X obj 168 561 mtof~;
#X obj 146 471 nbx 5 14 -1e+37 1e+37 0 0 empty empty empty 0 -8 0 10
-262144 -1 -1 67 256;
#X obj 448 450 nbx 5 14 -1e+37 1e+37 0 0 empty empty empty 0 -8 0 10
-262144 -1 -1 136.332 256;
#X obj 290 517 *~;
#X obj 167 581 +~;
#X obj 302 450 nbx 5 14 -1e+37 1e+37 0 0 empty empty empty 0 -8 0 10
-262144 -1 -1 310.433 256;
#X obj 292 472 *~;
#X obj 304 431 hsl 128 15 0.001 10000 1 0 empty empty empty -2 -8 0
10 -262144 -1 -1 9964 0;
#X obj 168 736 dac~;
#X obj 169 690 *~;
#X obj 291 494 osc~;
#X obj 451 432 hsl 128 15 1 20000 1 0 empty empty empty -2 -8 0 10
-262144 -1 -1 6303 0;
#X obj 428 475 *~;
#X obj 178 23 table \$0-pitches;
#X obj 118 32 bng 15 250 50 0 empty empty empty 17 7 0 10 -262144 -1
-1;
#X obj 118 50 pack \$0;
#X msg 87 93 \; \$1-pitches 0 60 62 63 65 67 69 71;
#X msg 170 58 \; \$1-pitches resize 7;
#X obj 126 71 t f f;
#X obj 145 377 tabread \$0-pitches;
#X floatatom 145 399 5 0 0 0 - - -;
#X obj 144 344 random 7;
#X obj 143 298 bng 15 250 50 0 empty empty empty 17 7 0 10 -262144
-1 -1;
#X obj 144 422 t f b;
#X obj 143 316 metro 300;
#X text 159 453 pitch;
#N canvas 962 1098 476 831 xenv 0;
#X obj 56 284 sig~;
#X obj 23 305 ffxenv;
#X obj 107 146 hsl 128 10 3 300 1 0 empty empty empty -2 -8 0 10 -262144
-1 -1 100 0;
#X obj 24 61 inlet;
#X obj 107 133 hsl 128 10 3 10000 1 0 empty empty empty -2 -8 0 10
-262144 -1 -1 6593 0;
#X obj 60 182 f;
#X obj 24 349 outlet~;
#X obj 61 205 f;
#X obj 107 120 hsl 128 10 0.01 1 1 0 empty empty empty -2 -8 0 10 -262130
-1 -1 12700 0;
#X obj 59 156 f;
#X obj 24 80 bng 15 250 50 0 empty empty empty 17 7 0 10 -262144 -1
-1;
#X obj 110 61 inlet;
#X obj 149 62 inlet;
#X obj 187 62 inlet;
#X obj 23 117 t b b b;
#X obj 23 234 pack f f f;
#X obj 107 159 hsl 128 10 0.1 20 0 0 empty empty empty -2 -8 0 10 -258113
-262144 -1 500 0;
#X text 278 69 1 Bang \, trigger env;
#X text 282 91 2 Amp \, 0..1;
#X text 283 109 3;
#X text 299 110 Decay time (ms);
#X text 283 134 4 Attack time (ms);
#X text 281 154 5 Env curve (exp);
#X obj 231 63 inlet;
#X floatatom 57 265 5 0 0 0 - - -;
#X connect 0 0 1 1;
#X connect 1 0 6 0;
#X connect 2 0 7 1;
#X connect 3 0 10 0;
#X connect 4 0 5 1;
#X connect 5 0 15 1;
#X connect 7 0 15 2;
#X connect 8 0 9 1;
#X connect 9 0 15 0;
#X connect 10 0 14 0;
#X connect 11 0 8 0;
#X connect 12 0 4 0;
#X connect 13 0 2 0;
#X connect 14 0 9 0;
#X connect 14 1 5 0;
#X connect 14 2 7 0;
#X connect 15 0 1 0;
#X connect 16 0 24 0;
#X connect 23 0 16 0;
#X connect 24 0 0 0;
#X coords 0 -1 1 1 142 72 1 100 100;
#X restore 292 355 pd xenv;
#X obj 292 337 bng 15 250 50 0 empty empty empty 17 7 0 10 -262144
-1 -1;
#N canvas 962 1098 476 831 xenv 0;
#X obj 56 284 sig~;
#X obj 23 305 ffxenv;
#X obj 107 146 hsl 128 10 3 300 1 0 empty empty empty -2 -8 0 10 -262144
-1 -1 400 0;
#X obj 24 61 inlet;
#X obj 107 133 hsl 128 10 3 10000 1 0 empty empty empty -2 -8 0 10
-262144 -1 -1 6999 0;
#X obj 60 182 f;
#X obj 24 349 outlet~;
#X obj 60 206 f;
#X obj 107 120 hsl 128 10 0.01 1 1 0 empty empty empty -2 -8 0 10 -262130
-1 -1 12700 0;
#X obj 59 156 f;
#X obj 24 80 bng 15 250 50 0 empty empty empty 17 7 0 10 -262144 -1
-1;
#X obj 110 61 inlet;
#X obj 149 62 inlet;
#X obj 187 62 inlet;
#X obj 23 117 t b b b;
#X obj 23 234 pack f f f;
#X obj 107 159 hsl 128 10 0.1 20 0 0 empty empty empty -2 -8 0 10 -258113
-262144 -1 1300 0;
#X text 278 69 1 Bang \, trigger env;
#X text 282 91 2 Amp \, 0..1;
#X text 283 109 3;
#X text 299 110 Decay time (ms);
#X text 283 134 4 Attack time (ms);
#X text 281 154 5 Env curve (exp);
#X obj 231 63 inlet;
#X floatatom 57 265 5 0 0 0 - - -;
#X floatatom 158 209 5 0 0 0 - - -;
#X connect 0 0 1 1;
#X connect 1 0 6 0;
#X connect 2 0 7 1;
#X connect 3 0 10 0;
#X connect 4 0 5 1;
#X connect 5 0 15 1;
#X connect 7 0 15 2;
#X connect 8 0 9 1;
#X connect 9 0 15 0;
#X connect 10 0 14 0;
#X connect 11 0 8 0;
#X connect 12 0 4 0;
#X connect 13 0 2 0;
#X connect 14 0 9 0;
#X connect 14 1 5 0;
#X connect 14 2 7 0;
#X connect 15 0 1 0;
#X connect 16 0 24 0;
#X connect 16 0 25 0;
#X connect 23 0 16 0;
#X connect 24 0 0 0;
#X coords 0 -1 1 1 142 72 1 100 100;
#X restore 446 355 pd xenv;
#X obj 446 337 bng 15 250 50 0 empty empty empty 17 7 0 10 -262144
-1 -1;
#N canvas 578 1098 284 831 xenv 0;
#X obj 56 284 sig~;
#X obj 23 305 ffxenv;
#X obj 107 146 hsl 128 10 1 1000 1 0 empty empty empty -2 -8 0 10 -262144
-1 -1 12600 0;
#X obj 24 61 inlet;
#X obj 107 133 hsl 128 10 3 20000 1 0 empty empty empty -2 -8 0 10
-262144 -1 -1 10400 0;
#X obj 60 182 f;
#X obj 24 349 outlet~;
#X obj 60 206 f;
#X obj 107 120 hsl 128 10 0.01 1 1 0 empty empty empty -2 -8 0 10 -262130
-1 -1 12700 0;
#X obj 59 156 f;
#X obj 24 80 bng 15 250 50 0 empty empty empty 17 7 0 10 -262144 -1
-1;
#X obj 110 61 inlet;
#X obj 149 62 inlet;
#X obj 187 62 inlet;
#X obj 23 117 t b b b;
#X obj 23 234 pack f f f;
#X obj 107 159 hsl 128 10 0.01 10 0 0 empty empty empty -2 -8 0 10
-258113 -262144 -1 200 0;
#X text 278 69 1 Bang \, trigger env;
#X text 282 91 2 Amp \, 0..1;
#X text 283 109 3;
#X text 299 110 Decay time (ms);
#X text 283 134 4 Attack time (ms);
#X text 281 154 5 Env curve (exp);
#X obj 231 63 inlet;
#X floatatom 57 265 5 0 0 0 - - -;
#X connect 0 0 1 1;
#X connect 1 0 6 0;
#X connect 2 0 7 1;
#X connect 3 0 10 0;
#X connect 4 0 5 1;
#X connect 5 0 15 1;
#X connect 7 0 15 2;
#X connect 8 0 9 1;
#X connect 9 0 15 0;
#X connect 10 0 14 0;
#X connect 11 0 8 0;
#X connect 12 0 4 0;
#X connect 13 0 2 0;
#X connect 14 0 9 0;
#X connect 14 1 5 0;
#X connect 14 2 7 0;
#X connect 15 0 1 0;
#X connect 16 0 24 0;
#X connect 23 0 16 0;
#X connect 24 0 0 0;
#X coords 0 -1 1 1 142 72 1 100 100;
#X restore 291 563 pd xenv;
#X obj 291 545 bng 15 250 50 0 empty empty empty 17 7 0 10 -262144
-1 -1;
#X text 198 23;
#X obj 322 645 hsl 128 15 0.01 1 1 0 empty empty empty -2 -8 0 10 -262144
-1 -1 10900 0;
#X obj 311 667 *~;
#X floatatom 193 284 5 0 0 0 - - -;
#X obj 369 84 ffrx;
#X obj 369 107 route avg avg0 avg1 avg2 avg3 avg4;
#X obj 169 711 hip~ 10;
#X obj 163 513 - 0;
#X floatatom 203 513 5 0 0 0 - - -;
#X obj 350 185 expr ($f1 - 110) / 20 * 100;
#X floatatom 56 242 5 0 0 0 - - -;
#X obj 56 219 spigot;
#X obj 56 169 t f f;
#X obj 116 182 phasor~;
#X floatatom 113 141 5 0 0 0 - - -;
#X obj 116 161 sig~;
#X obj 115 225 snapshot~;
#X floatatom 114 266 5 0 0 0 - - -;
#X obj 115 246 > 0.9;
#X obj 125 203 bang~;
#X connect 0 0 10 0;
#X connect 1 0 5 0;
#X connect 2 0 40 0;
#X connect 2 0 32 0;
#X connect 3 0 13 1;
#X connect 4 0 5 1;
#X connect 5 0 0 0;
#X connect 6 0 7 1;
#X connect 7 0 11 0;
#X connect 8 0 6 0;
#X connect 10 0 39 0;
#X connect 11 0 4 0;
#X connect 12 0 3 0;
#X connect 13 0 4 1;
#X connect 15 0 16 0;
#X connect 16 0 19 0;
#X connect 19 0 17 0;
#X connect 19 1 18 0;
#X connect 20 0 21 0;
#X connect 21 0 24 0;
#X connect 22 0 20 0;
#X connect 23 0 25 0;
#X connect 24 0 2 0;
#X connect 25 0 22 0;
#X connect 27 0 7 0;
#X connect 28 0 27 0;
#X connect 29 0 13 0;
#X connect 30 0 29 0;
#X connect 31 0 35 0;
#X connect 32 0 31 0;
#X connect 34 0 35 1;
#X connect 35 0 10 1;
#X connect 36 0 25 1;
#X connect 37 0 38 0;
#X connect 38 0 45 0;
#X connect 38 1 42 0;
#X connect 38 2 8 0;
#X connect 38 4 27 2;
#X connect 38 5 29 2;
#X connect 38 6 27 4;
#X connect 39 0 9 0;
#X connect 39 0 9 1;
#X connect 40 0 1 0;
#X connect 41 0 40 1;
#X connect 42 0 12 0;
#X connect 44 0 43 0;
#X connect 45 0 44 0;
#X connect 46 0 49 0;
#X connect 47 0 48 0;
#X connect 48 0 46 0;
#X connect 49 0 51 0;
#X connect 50 0 44 1;
#X connect 51 0 50 0;
#X connect 52 0 49 0;
