#N canvas 722 1098 716 831 10;
#X obj 183 512 osc~;
#X obj 183 430 mtof~;
#X obj 157 363 nbx 5 14 -1e+37 1e+37 0 0 empty empty empty 0 -8 0 10
-262144 -1 -1 62 256;
#X obj 380 452 nbx 5 14 -1e+37 1e+37 0 0 empty empty empty 0 -8 0 10
-262144 -1 -1 115.609 256;
#X obj 307 484 *~;
#X obj 184 491 +~;
#X obj 333 329 nbx 5 14 -1e+37 1e+37 0 0 empty empty empty 0 -8 0 10
-262144 -1 -1 30 256;
#X obj 305 351 *~;
#X obj 335 310 hsl 128 15 30 3000 1 0 empty empty empty -2 -8 0 10
-262144 -1 -1 0 0;
#X obj 215 773 dac~;
#X obj 219 743 hip~ 10;
#X obj 366 252 sig~;
#X floatatom 366 230 5 0 0 0 - - -;
#X obj 310 561 sig~;
#X floatatom 310 539 5 0 0 0 - - -;
#X obj 233 661 *~;
#X obj 305 381 osc~;
#X obj 383 434 hsl 128 15 100 10000 1 0 empty empty empty -2 -8 0 10
-262144 -1 -1 400 0;
#X obj 440 394 sig~;
#X floatatom 444 372 5 0 0 0 - - -;
#X obj 355 474 *~;
#X obj 371 412 ffxenv;
#X obj 219 714 freeverb~;
#X obj 277 744 hip~ 10;
#X msg 385 659 freeze 0;
#X text 200 43;
#X obj 172 62 table \$0-pitches;
#X obj 156 93 bng 15 250 50 0 empty empty empty 17 7 0 10 -262144 -1
-1;
#X obj 160 112 pack \$0;
#X msg 170 151 \; \$1-pitches 0 60 62 63 65 67 69 71;
#X msg 253 116 \; \$1-pitches resize 7;
#X obj 209 114 t f f;
#X obj 147 254 tabread \$0-pitches;
#X floatatom 147 276 5 0 0 0 - - -;
#X obj 146 221 random 7;
#X obj 135 188 bng 15 250 50 0 empty empty empty 17 7 0 10 -262144
-1 -1;
#X floatatom 245 300 5 0 0 0 - - -;
#X obj 222 320 f 2000;
#X obj 157 304 t f b;
#X obj 221 341 s \$0-decay;
#X obj 304 198 r \$0-decay;
#X obj 398 349 r \$0-decay;
#X obj 240 528 r \$0-decay;
#X text 219 283 next decay;
#X obj 163 188 metro 300;
#X floatatom 244 212 5 0 0 0 - - -;
#X obj 167 387 *;
#X text 165 345 pitch;
#X obj 127 364 vsl 15 128 0.25 3 0 0 empty empty empty 0 -9 0 10 -262144
-1 -1 0 0;
#X floatatom 128 501 5 0 0 0 - - -;
#X msg 106 338 1;
#X msg 104 314 2;
#X msg 107 284 0.5;
#X floatatom 201 403 5 0 0 0 - - -;
#X msg 104 255 0.25;
#X msg 440 768 roomsize 0.6;
#X msg 376 687 dry 0.7;
#X msg 396 707 wet 0.2;
#X msg 400 150 \; \$1-pitches 0 60 63 67 71;
#X msg 402 113 \; \$1-pitches resize 4;
#X obj 394 62 bng 15 250 50 0 empty empty empty 17 7 0 10 -262144 -1
-1;
#X obj 398 81 pack \$0;
#X obj 447 83 t f f f;
#X msg 514 85 4;
#X obj 19 154 random 4;
#X obj 12 198 bng 15 250 50 0 empty empty empty 17 7 0 10 -262144 -1
-1;
#X obj 22 208 bng 15 250 50 0 empty empty empty 17 7 0 10 -262144 -1
-1;
#X obj 32 218 bng 15 250 50 0 empty empty empty 17 7 0 10 -262144 -1
-1;
#X obj 42 228 bng 15 250 50 0 empty empty empty 17 7 0 10 -262144 -1
-1;
#X obj 16 175 route 0 1 2 3;
#X msg 7 266 100;
#X msg 7 285 200;
#X msg 7 306 300;
#X msg 7 327 1200;
#X msg 68 361 1.5;
#X obj 249 588 ffxenv;
#X obj 304 275 ffxenv;
#X msg 250 560 1 \$1 30;
#X msg 373 389 1 \$1 30;
#X msg 304 251 1 \$1 60;
#X connect 0 0 15 0;
#X connect 1 0 5 0;
#X connect 2 0 46 0;
#X connect 3 0 20 1;
#X connect 4 0 5 1;
#X connect 5 0 0 0;
#X connect 6 0 7 1;
#X connect 7 0 16 0;
#X connect 8 0 6 0;
#X connect 10 0 9 0;
#X connect 11 0 76 1;
#X connect 12 0 11 0;
#X connect 13 0 75 1;
#X connect 14 0 13 0;
#X connect 15 0 22 0;
#X connect 16 0 4 0;
#X connect 17 0 3 0;
#X connect 18 0 21 1;
#X connect 19 0 18 0;
#X connect 20 0 4 1;
#X connect 21 0 20 0;
#X connect 22 0 10 0;
#X connect 22 0 23 0;
#X connect 23 0 9 1;
#X connect 24 0 22 0;
#X connect 27 0 28 0;
#X connect 28 0 31 0;
#X connect 31 0 29 0;
#X connect 31 1 30 0;
#X connect 32 0 33 0;
#X connect 33 0 38 0;
#X connect 34 0 32 0;
#X connect 35 0 44 0;
#X connect 36 0 37 1;
#X connect 37 0 39 0;
#X connect 38 0 2 0;
#X connect 38 1 37 0;
#X connect 40 0 79 0;
#X connect 41 0 78 0;
#X connect 42 0 77 0;
#X connect 44 0 34 0;
#X connect 44 0 64 0;
#X connect 45 0 44 1;
#X connect 46 0 1 0;
#X connect 46 0 53 0;
#X connect 48 0 46 1;
#X connect 48 0 49 0;
#X connect 50 0 48 0;
#X connect 51 0 48 0;
#X connect 52 0 48 0;
#X connect 54 0 48 0;
#X connect 55 0 22 0;
#X connect 56 0 22 0;
#X connect 57 0 22 0;
#X connect 60 0 61 0;
#X connect 61 0 62 0;
#X connect 62 0 58 0;
#X connect 62 1 59 0;
#X connect 62 2 63 0;
#X connect 63 0 34 1;
#X connect 64 0 69 0;
#X connect 65 0 70 0;
#X connect 66 0 71 0;
#X connect 67 0 72 0;
#X connect 68 0 73 0;
#X connect 69 0 65 0;
#X connect 69 1 66 0;
#X connect 69 2 67 0;
#X connect 69 3 68 0;
#X connect 70 0 45 0;
#X connect 71 0 45 0;
#X connect 72 0 45 0;
#X connect 73 0 45 0;
#X connect 74 0 48 0;
#X connect 75 0 15 1;
#X connect 76 0 7 0;
#X connect 77 0 75 0;
#X connect 78 0 21 0;
#X connect 79 0 76 0;
